<?xml version="1.0" encoding="UTF-8"?><svg id="b" xmlns="http://www.w3.org/2000/svg" viewBox="0 0 706.92 363.83"><g id="c"><g id="d"><g><g><path d="M590.25,215.65c9.57,0,19.07-1.17,28.23-3.48,28.49-7.19,46.53-23.33,56.22-32,8.89-7.95,21.06-18.85,27.7-37.49,3.34-9.37,4.83-19.32,4.45-29.58-.18-4.86-3.07-9.2-7.48-11.24-1.73-.8-3.58-1.19-5.42-1.19-2.85,0-5.67,.94-7.99,2.77-14.01,11.04-29.39,18.55-45.69,22.33-7.69,1.78-14.86,2.58-23.25,2.58-7.74,0-15.8-.64-27.21-1.62-17.94-1.54-28.7-3.96-38.19-6.09-10.5-2.36-20.42-4.59-35.84-4.59-1.97,0-4.04,.04-6.15,.11-22.34,.76-39.58,5.04-54.28,13.47-5.32,3.05-17.77,10.19-27.8,25.02-4.16,6.15-7.42,12.91-9.67,20.08-1.42,4.53-.25,9.48,3.07,12.88,2.46,2.53,5.82,3.91,9.25,3.91,1.18,0,2.37-.16,3.54-.5,2.98-.85,6.03-1.61,9.08-2.27,.14-.03,15.02-3.16,32.26-3.16,5.26,0,10.24,.29,14.78,.87,11.27,1.43,15.82,4.03,22.7,7.95,6.81,3.88,15.28,8.72,31.04,13.31,10.86,3.16,27.26,7.94,46.65,7.94Z"/><path d="M438.24,161.88c8.19-12.1,18.38-18.1,23.53-21.05,10.07-5.78,24.12-10.94,48.29-11.76,32.05-1.09,37.23,6.97,78.63,10.53,21.82,1.87,36.22,2.99,54.49-1.24,23.35-5.41,40.46-16.64,50.77-24.77,.22,5.96-.19,14.87-3.71,24.77-5.42,15.23-15.13,24.13-24.15,32.2-9.15,8.19-25.36,22.69-50.77,29.1-28.52,7.2-52.65,.17-68.11-4.33-30.79-8.97-29.93-18.39-55.72-21.67-25.08-3.19-51.39,2.48-51.39,2.48-4.11,.89-7.51,1.79-9.91,2.48,1.35-4.29,3.73-10.33,8.05-16.72Z" fill="#fff"/><path d="M502.35,145.6c11.76,1.58,23.23,4.28,34.56,7.43,11.31,3.15,22.51,7.07,33.36,10.96,5.44,1.92,10.62,3.61,15.93,4.38,5.37,.82,10.92,.96,16.47,.6,11.14-.76,22.26-3.9,33.41-7.88-4.59,3.78-9.72,6.87-15.14,9.51-5.43,2.61-11.25,4.55-17.28,5.73-6.05,1.16-12.28,1.51-18.53,.93-3.14-.29-6.28-.9-9.28-1.66-3-.8-5.87-1.74-8.69-2.71-11.17-4.02-21.83-8.43-32.66-12.88-10.77-4.51-21.53-9.11-32.14-14.42Z"/><path d="M559.93,262.01c27.83,0,48.52-12.14,55.31-16.13,9.96-5.84,19-13.16,26.88-21.76,3.73-4.07,4.46-10.05,1.83-14.9-2.29-4.2-6.67-6.75-11.34-6.75-.71,0-1.44,.06-2.16,.18-8.91,1.51-17.64,2.27-25.94,2.27-12.41,0-24.27-1.72-35.26-5.1-14.75-4.54-33.74-13.75-43.94-18.7-7.4-3.59-13.22-6.63-17.9-9.08-12.27-6.41-19.68-10.28-30.53-10.28-.48,0-.96,0-1.45,.02-17.53,.54-34.42,10.63-50.19,29.99-3.11,3.82-3.78,9.08-1.72,13.55,2.06,4.48,6.49,7.39,11.41,7.51,10.37,.26,20.16,2.32,29.09,6.14,7.17,3.06,11.06,6.09,16.46,10.28,2.81,2.19,6,4.66,10,7.41,11.04,7.59,34.01,23.37,63.78,25.16,1.88,.11,3.78,.17,5.67,.17Z"/><path d="M632.61,215.4c-4.99,5.44-12.83,12.85-23.91,19.35-7.21,4.23-27.48,15.78-53.67,14.2-26.19-1.58-46.57-15.58-57.25-22.91-11.41-7.84-15.85-13.43-28.7-18.92-13.3-5.68-25.58-6.97-33.84-7.17,16.97-20.82,31.25-24.95,40.58-25.24,11.55-.36,17.16,5.11,43.85,18.05,10.91,5.29,30.08,14.59,45.78,19.42,14.63,4.5,36.77,8.36,67.16,3.22Z" fill="#fff"/><path d="M513.55,293.93c17.37,0,30.98-4.38,36.1-6.03,10.99-3.54,21.41-8.71,30.97-15.39,4.53-3.16,6.54-8.84,5.03-14.14-1.52-5.3-6.24-9.06-11.75-9.34-22.56-1.17-42.45-6.58-59.12-16.08-13.41-7.64-29.94-20.76-38.82-27.81-6.45-5.12-11.47-9.35-15.5-12.76-10.93-9.22-17.53-14.79-28.98-16.97-2.98-.57-6.04-.86-9.11-.86-14.62,0-30.24,6.46-46.4,19.21-3.87,3.05-5.66,8.04-4.63,12.85,1.04,4.82,4.72,8.62,9.5,9.82,10.07,2.51,19.17,6.65,27.06,12.32,6.33,4.55,9.47,8.35,13.82,13.61,2.27,2.75,4.85,5.86,8.15,9.41,9.12,9.8,28.11,30.21,56.78,38.43,8.6,2.47,17.65,3.72,26.89,3.72h0Z"/><path d="M487.43,187.5c6.85,3.22,13.21,6.72,19.59,10.09,6.36,3.39,12.66,6.73,19.03,9.96,6.36,3.24,12.74,6.42,19.22,9.58,6.47,3.2,13.03,6.3,19.65,9.98-7.58,.13-15.01-1.09-22.25-3.03-7.23-1.96-14.24-4.71-20.91-8.13-6.68-3.41-13-7.5-18.83-12.2-5.8-4.73-11.16-10.03-15.49-16.24Z"/><path d="M573.23,261.93c-6.06,4.23-15.32,9.75-27.54,13.69-7.95,2.56-30.25,9.43-55.47,2.19-25.22-7.24-42.07-25.34-50.89-34.82-9.43-10.14-12.55-16.56-23.9-24.71-11.75-8.44-23.46-12.37-31.47-14.36,21.09-16.63,35.93-17.55,45.1-15.81,11.35,2.16,15.64,8.72,38.87,27.16,9.49,7.54,26.19,20.79,40.46,28.91,13.3,7.58,34.07,16.16,64.85,17.75Z" fill="#fff"/><path d="M457.59,227.67c5.49,1.87,10.42,4.23,15.27,6.63,4.83,2.43,9.54,4.95,14.18,7.58,4.65,2.62,9.24,5.35,13.81,8.24,4.56,2.93,9.12,5.93,13.55,9.69-5.81-.07-11.34-1.27-16.68-2.96-5.33-1.72-10.46-4-15.33-6.75-4.86-2.76-9.46-5.98-13.68-9.67-4.2-3.71-8.08-7.83-11.14-12.76Z"/></g><g><path d="M116.67,215.65c-9.57,0-19.07-1.17-28.23-3.48-28.49-7.19-46.53-23.33-56.22-32-8.89-7.95-21.06-18.85-27.7-37.49C1.18,133.31-.32,123.36,.06,113.11c.18-4.86,3.07-9.2,7.48-11.24,1.73-.8,3.58-1.19,5.42-1.19,2.85,0,5.67,.94,7.99,2.77,14.01,11.04,29.38,18.55,45.69,22.33,7.69,1.78,14.86,2.58,23.25,2.58,7.74,0,15.8-.64,27.21-1.62,17.94-1.54,28.7-3.96,38.19-6.09,10.5-2.36,20.42-4.59,35.84-4.59,1.97,0,4.04,.04,6.15,.11,22.34,.76,39.59,5.04,54.28,13.47,5.32,3.05,17.77,10.19,27.8,25.02,4.16,6.15,7.42,12.91,9.67,20.08,1.42,4.53,.25,9.48-3.07,12.88-2.46,2.53-5.82,3.91-9.25,3.91-1.18,0-2.37-.16-3.54-.5-2.98-.85-6.03-1.61-9.08-2.27-.14-.03-15.02-3.16-32.26-3.16-5.27,0-10.24,.29-14.78,.87-11.27,1.43-15.82,4.03-22.7,7.95-6.81,3.88-15.28,8.72-31.04,13.31-10.86,3.16-27.26,7.94-46.65,7.94Z"/><path d="M268.68,161.88c-8.19-12.1-18.38-18.1-23.53-21.05-10.07-5.78-24.12-10.94-48.29-11.76-32.05-1.09-37.23,6.97-78.63,10.53-21.82,1.87-36.22,2.99-54.49-1.24-23.34-5.41-40.46-16.64-50.77-24.77-.22,5.96,.19,14.87,3.71,24.77,5.42,15.23,15.13,24.13,24.15,32.2,9.15,8.19,25.36,22.69,50.77,29.1,28.52,7.2,52.65,.17,68.11-4.33,30.79-8.97,29.93-18.39,55.72-21.67,25.08-3.19,51.39,2.48,51.39,2.48,4.11,.89,7.51,1.79,9.91,2.48-1.35-4.29-3.73-10.33-8.05-16.72Z" fill="#fff"/><path d="M204.57,145.6c-10.6,5.31-21.36,9.91-32.14,14.42-10.82,4.45-21.49,8.86-32.66,12.88-2.82,.97-5.69,1.92-8.69,2.71-3,.76-6.14,1.37-9.28,1.66-6.25,.58-12.48,.22-18.53-.93-6.04-1.19-11.85-3.13-17.29-5.73-5.42-2.64-10.55-5.73-15.14-9.51,11.15,3.98,22.27,7.12,33.41,7.88,5.55,.36,11.1,.22,16.47-.6,5.31-.78,10.49-2.46,15.93-4.38,10.85-3.89,22.05-7.81,33.36-10.96,11.33-3.16,22.8-5.86,34.56-7.43Z"/><path d="M146.99,262.01c-27.83,0-48.51-12.14-55.31-16.13-9.96-5.84-19-13.16-26.88-21.76-3.73-4.07-4.46-10.05-1.83-14.9,2.29-4.2,6.67-6.75,11.34-6.75,.72,0,1.44,.06,2.16,.18,8.91,1.51,17.64,2.27,25.94,2.27,12.41,0,24.27-1.72,35.26-5.1,14.75-4.54,33.74-13.75,43.94-18.7,7.4-3.59,13.22-6.63,17.9-9.08,12.27-6.41,19.68-10.28,30.53-10.28,.48,0,.96,0,1.45,.02,17.53,.54,34.42,10.63,50.19,29.99,3.11,3.82,3.78,9.08,1.72,13.55-2.06,4.48-6.49,7.39-11.41,7.51-10.37,.26-20.16,2.32-29.09,6.14-7.17,3.06-11.06,6.09-16.46,10.28-2.82,2.19-6.01,4.66-10,7.41-11.04,7.59-34.01,23.37-63.78,25.16-1.87,.11-3.78,.17-5.67,.17Z"/><path d="M74.31,215.4c4.99,5.44,12.83,12.85,23.91,19.35,7.21,4.23,27.48,15.78,53.67,14.2,26.19-1.58,46.57-15.58,57.25-22.91,11.41-7.84,15.85-13.43,28.7-18.92,13.3-5.68,25.58-6.97,33.84-7.17-16.97-20.82-31.25-24.95-40.58-25.24-11.55-.36-17.16,5.11-43.85,18.05-10.91,5.29-30.08,14.59-45.78,19.42-14.63,4.5-36.77,8.36-67.16,3.22Z" fill="#fff"/><path d="M193.37,293.93c-17.37,0-30.98-4.38-36.1-6.03-10.99-3.54-21.41-8.71-30.97-15.39-4.52-3.16-6.54-8.84-5.03-14.14,1.52-5.3,6.24-9.06,11.75-9.34,22.56-1.17,42.45-6.58,59.12-16.08,13.41-7.64,29.94-20.76,38.82-27.81,6.45-5.12,11.47-9.35,15.5-12.76,10.93-9.22,17.53-14.79,28.98-16.97,2.98-.57,6.05-.86,9.11-.86,14.63,0,30.24,6.46,46.4,19.21,3.87,3.05,5.66,8.04,4.63,12.85-1.04,4.82-4.72,8.62-9.5,9.82-10.07,2.51-19.17,6.65-27.06,12.32-6.33,4.55-9.47,8.35-13.82,13.61-2.27,2.75-4.85,5.86-8.15,9.41-9.12,9.8-28.11,30.21-56.78,38.43-8.6,2.47-17.65,3.72-26.89,3.72h0Z"/><path d="M219.49,187.5c-4.33,6.21-9.69,11.51-15.49,16.24-5.83,4.7-12.15,8.8-18.83,12.2-6.67,3.42-13.69,6.16-20.91,8.13-7.23,1.93-14.67,3.16-22.25,3.03,6.62-3.68,13.18-6.78,19.65-9.98,6.48-3.16,12.86-6.34,19.22-9.58,6.36-3.23,12.67-6.57,19.03-9.96,6.38-3.37,12.74-6.87,19.59-10.09Z"/><path d="M133.68,261.93c6.06,4.23,15.32,9.75,27.54,13.69,7.95,2.56,30.25,9.43,55.47,2.19,25.22-7.24,42.07-25.34,50.89-34.82,9.43-10.14,12.55-16.56,23.9-24.71,11.75-8.44,23.46-12.37,31.47-14.36-21.09-16.63-35.93-17.55-45.1-15.81-11.35,2.16-15.64,8.72-38.87,27.16-9.49,7.54-26.19,20.79-40.46,28.91-13.3,7.58-34.07,16.16-64.85,17.75Z" fill="#fff"/><path d="M249.33,227.67c-3.06,4.93-6.94,9.05-11.14,12.76-4.22,3.68-8.82,6.91-13.68,9.67-4.86,2.75-9.99,5.03-15.33,6.75-5.34,1.69-10.87,2.89-16.68,2.96,4.43-3.75,8.99-6.76,13.55-9.69,4.57-2.89,9.16-5.62,13.81-8.24,4.65-2.63,9.35-5.16,14.18-7.58,4.86-2.4,9.79-4.76,15.27-6.63Z"/></g></g><g><g><g><path d="M189.46,54.76c-3.31,0-6-2.69-6-6V21.78h-5.94c-3.31,0-6-2.69-6-6v-7.54c0-3.31,2.69-6,6-6h33.87c3.31,0,6,2.69,6,6v7.54c0,3.31-2.69,6-6,6h-6.16v26.98c0,3.31-2.69,6-6,6h-9.77Z" fill="#231f20"/><path d="M211.39,15.78h-12.16V48.76h-9.77V15.78h-11.94v-7.54h33.87v7.54Z" fill="#231f20"/><rect x="210.18" y="2.24" width="21.74" height="52.52" rx="6" ry="6" fill="#231f20"/><path d="M225.92,48.76h-9.74V8.24h9.74V48.76Z" fill="#231f20"/><path d="M232.71,54.76c-3.31,0-6-2.69-6-6V8.24c0-3.31,2.69-6,6-6h27.97c3.31,0,6,2.69,6,6v7.54c0,2.48-1.51,4.61-3.65,5.52,.52,.89,.81,1.92,.81,3.02v7.24c0,1.51-.56,2.89-1.48,3.94,2.46,.75,4.26,3.04,4.26,5.74v7.51c0,3.31-2.69,6-6,6h-27.92Z" fill="#231f20"/><path d="M257.84,31.56h-15.36v9.69h18.15v7.51h-27.92V8.24h27.97v7.54h-18.2v8.54h15.36v7.24Z" fill="#231f20"/><path d="M288.74,54.76c-2.16,0-4.15-1.16-5.21-3.03l-3.15-5.53v2.56c0,3.31-2.69,6-6,6h-9.77c-3.31,0-6-2.69-6-6V8.24c0-3.31,2.69-6,6-6h9.77c2.16,0,4.15,1.16,5.22,3.04l3.12,5.48v-2.52c0-3.31,2.69-6,6-6h9.74c3.31,0,6,2.69,6,6V48.76c0,3.31-2.69,6-6,6h-9.71Z" fill="#231f20"/><path d="M298.45,48.76h-9.71l-14.36-25.22v25.22h-9.77V8.24h9.77l14.33,25.22V8.24h9.74V48.76Z" fill="#231f20"/><path d="M304.63,54.76c-3.31,0-6-2.69-6-6V8.24c0-3.31,2.69-6,6-6h13.05c4.62,0,8.86,1.08,12.62,3.22,3.83,2.18,6.86,5.29,9,9.23,2.07,3.83,3.14,8.13,3.16,12.78v1.9c0,4.69-1.03,9-3.06,12.8-2.09,3.93-5.09,7.04-8.9,9.26-3.76,2.19-7.97,3.31-12.52,3.33h-13.36Zm15.77-23.25c.07-.61,.11-1.31,.11-2.14v-1.75c0-.83-.04-1.53-.11-2.13v6.03Z" fill="#231f20"/><path d="M304.63,48.76V8.24h13.05c3.58,0,6.8,.81,9.66,2.44s5.09,3.92,6.69,6.87c1.6,2.96,2.42,6.28,2.44,9.95v1.87c0,3.71-.78,7.04-2.35,9.98-1.57,2.94-3.78,5.24-6.62,6.9-2.85,1.66-6.03,2.5-9.53,2.52h-13.33Zm9.77-32.98v25.47h3.4c2.8,0,4.95-1,6.46-2.99,1.5-1.99,2.25-4.96,2.25-8.89v-1.75c0-3.92-.75-6.87-2.25-8.85-1.5-1.99-3.69-2.98-6.57-2.98h-3.29Z" fill="#231f20"/><path d="M366.86,54.76c-2.62,0-4.94-1.71-5.73-4.21l-1.05-3.36h-4.55l-1.03,3.34c-.78,2.51-3.1,4.23-5.73,4.23h-10.44c-1.96,0-3.8-.96-4.92-2.56-1.12-1.61-1.39-3.66-.71-5.5l14.86-40.52c.87-2.36,3.12-3.93,5.63-3.93h9.18c2.51,0,4.76,1.56,5.63,3.92l14.97,40.52c.68,1.84,.42,3.9-.71,5.51-1.12,1.61-2.96,2.57-4.92,2.57h-10.49Z" fill="#231f20"/><path d="M364.5,41.19h-13.39l-2.34,7.57h-10.44l14.86-40.52h9.18l14.97,40.52h-10.49l-2.37-7.57Zm-11.05-7.54h8.71l-4.37-14.05-4.34,14.05Z" fill="#231f20"/><path d="M411.56,55.32c-6.96,0-12.68-2.25-17.01-6.68-4.23-4.33-6.52-10.22-6.8-17.52,0-.06,0-.12,0-.18l-.03-3.51c0-4.91,.91-9.29,2.69-13.07,1.91-4.04,4.72-7.21,8.35-9.43,3.57-2.18,7.69-3.29,12.24-3.29,6.46,0,11.7,1.63,15.58,4.84,4.04,3.34,6.4,8.17,7.03,14.36,.12,1.19-.12,2.37-.66,3.4,.46,.85,.72,1.82,.72,2.85v16.64c0,1.48-.55,2.91-1.54,4.01-2.18,2.42-5.23,4.33-9.06,5.68-3.52,1.24-7.4,1.87-11.51,1.87Z" fill="#231f20"/><path d="M427.67,43.75c-1.5,1.67-3.7,3.02-6.6,4.04-2.89,1.02-6.07,1.53-9.52,1.53-5.31,0-9.55-1.62-12.72-4.87-3.17-3.25-4.87-7.76-5.09-13.55l-.03-3.51c0-3.99,.71-7.47,2.12-10.45,1.41-2.98,3.43-5.27,6.05-6.87,2.62-1.6,5.66-2.41,9.12-2.41,5.05,0,8.97,1.15,11.76,3.46,2.79,2.31,4.42,5.76,4.88,10.34h-9.41c-.33-2.26-1.06-3.88-2.17-4.84-1.11-.96-2.69-1.45-4.73-1.45-2.45,0-4.34,1.04-5.68,3.12-1.34,2.08-2.01,5.05-2.03,8.91v2.45c0,4.05,.69,7.08,2.07,9.12,1.38,2.03,3.56,3.05,6.53,3.05,2.54,0,4.43-.57,5.68-1.7v-6.29h-6.79v-6.71h16.56v16.64Z" fill="#231f20"/><path d="M433.35,54.76c-3.31,0-6-2.69-6-6V8.24c0-3.31,2.69-6,6-6h27.97c3.31,0,6,2.69,6,6v7.54c0,2.48-1.51,4.61-3.65,5.52,.52,.89,.81,1.92,.81,3.02v7.24c0,1.51-.56,2.89-1.48,3.94,2.46,.75,4.26,3.04,4.26,5.74v7.51c0,3.31-2.69,6-6,6h-27.92Z" fill="#231f20"/><path d="M458.48,31.56h-15.36v9.69h18.15v7.51h-27.92V8.24h27.97v7.54h-18.2v8.54h15.36v7.24Z" fill="#231f20"/><path d="M465.25,54.76c-3.31,0-6-2.69-6-6V8.24c0-3.31,2.69-6,6-6h27.97c3.31,0,6,2.69,6,6v7.54c0,2.48-1.51,4.61-3.65,5.52,.52,.89,.81,1.92,.81,3.02v7.24c0,1.51-.56,2.89-1.48,3.94,2.46,.75,4.26,3.04,4.26,5.74v7.51c0,3.31-2.69,6-6,6h-27.92Z" fill="#231f20"/><path d="M490.38,31.56h-15.36v9.69h18.15v7.51h-27.92V8.24h27.97v7.54h-18.2v8.54h15.36v7.24Z" fill="#231f20"/><path d="M519.55,54.76c-2.15,0-4.14-1.15-5.21-3.02l-1.45-2.53c-.23,3.1-2.82,5.55-5.98,5.55h-9.77c-3.31,0-6-2.69-6-6V8.24c0-3.31,2.69-6,6-6h9.77c2.82,0,5.19,1.95,5.83,4.58l1.36-1.98c1.12-1.63,2.97-2.6,4.95-2.6h12.08c2.28,0,4.37,1.29,5.38,3.34,1.01,2.05,.77,4.49-.61,6.3l-11.21,14.67,11.57,19.1c1.12,1.85,1.16,4.17,.1,6.05-1.06,1.89-3.06,3.05-5.23,3.05h-11.58Z" fill="#231f20"/><path d="M510.92,33.68l-4.01,4.4v10.69h-9.77V8.24h9.77V26.11l3.4-5.15,8.74-12.72h12.08l-13.69,17.92,13.69,22.6h-11.58l-8.63-15.08Z" fill="#231f20"/></g><g><path d="M211.39,15.78h-12.16V48.76h-9.77V15.78h-11.94v-7.54h33.87v7.54Z" fill="#fff"/><path d="M225.92,48.76h-9.74V8.24h9.74V48.76Z" fill="#fff"/><path d="M257.84,31.56h-15.36v9.69h18.15v7.51h-27.92V8.24h27.97v7.54h-18.2v8.54h15.36v7.24Z" fill="#fff"/><path d="M298.45,48.76h-9.71l-14.36-25.22v25.22h-9.77V8.24h9.77l14.33,25.22V8.24h9.74V48.76Z" fill="#fff"/><path d="M304.63,48.76V8.24h13.05c3.58,0,6.8,.81,9.66,2.44s5.09,3.92,6.69,6.87c1.6,2.96,2.42,6.28,2.44,9.95v1.87c0,3.71-.78,7.04-2.35,9.98-1.57,2.94-3.78,5.24-6.62,6.9-2.85,1.66-6.03,2.5-9.53,2.52h-13.33Zm9.77-32.98v25.47h3.4c2.8,0,4.95-1,6.46-2.99,1.5-1.99,2.25-4.96,2.25-8.89v-1.75c0-3.92-.75-6.87-2.25-8.85-1.5-1.99-3.69-2.98-6.57-2.98h-3.29Z" fill="#fff"/><path d="M364.5,41.19h-13.39l-2.34,7.57h-10.44l14.86-40.52h9.18l14.97,40.52h-10.49l-2.37-7.57Zm-11.05-7.54h8.71l-4.37-14.05-4.34,14.05Z" fill="#fff"/><path d="M427.67,43.75c-1.5,1.67-3.7,3.02-6.6,4.04-2.89,1.02-6.07,1.53-9.52,1.53-5.31,0-9.55-1.62-12.72-4.87-3.17-3.25-4.87-7.76-5.09-13.55l-.03-3.51c0-3.99,.71-7.47,2.12-10.45,1.41-2.98,3.43-5.27,6.05-6.87,2.62-1.6,5.66-2.41,9.12-2.41,5.05,0,8.97,1.15,11.76,3.46,2.79,2.31,4.42,5.76,4.88,10.34h-9.41c-.33-2.26-1.06-3.88-2.17-4.84-1.11-.96-2.69-1.45-4.73-1.45-2.45,0-4.34,1.04-5.68,3.12-1.34,2.08-2.01,5.05-2.03,8.91v2.45c0,4.05,.69,7.08,2.07,9.12,1.38,2.03,3.56,3.05,6.53,3.05,2.54,0,4.43-.57,5.68-1.7v-6.29h-6.79v-6.71h16.56v16.64Z" fill="#fff"/><path d="M458.48,31.56h-15.36v9.69h18.15v7.51h-27.92V8.24h27.97v7.54h-18.2v8.54h15.36v7.24Z" fill="#fff"/><path d="M490.38,31.56h-15.36v9.69h18.15v7.51h-27.92V8.24h27.97v7.54h-18.2v8.54h15.36v7.24Z" fill="#fff"/><path d="M510.92,33.68l-4.01,4.4v10.69h-9.77V8.24h9.77V26.11l3.4-5.15,8.74-12.72h12.08l-13.69,17.92,13.69,22.6h-11.58l-8.63-15.08Z" fill="#fff"/></g></g><g><path d="M132.52,57.58c-.56,0-1.13-.08-1.68-.24-2.19-.64-3.83-2.47-4.22-4.72l-2.09-11.91-11-5.03c-2.08-.95-3.43-3-3.5-5.28-.07-2.28,1.17-4.41,3.18-5.48l10.68-5.67,1.39-12.01c.26-2.27,1.79-4.19,3.94-4.96,.66-.24,1.34-.35,2.02-.35,1.53,0,3.03,.59,4.17,1.69l8.69,8.41,11.85-2.39c.4-.08,.79-.12,1.19-.12,1.84,0,3.6,.84,4.75,2.33,1.4,1.81,1.65,4.25,.64,6.3l-5.31,10.86,5.94,10.53c1.12,1.99,1.02,4.44-.27,6.33-1.13,1.65-2.99,2.62-4.96,2.62-.28,0-.56-.02-.84-.06l-11.97-1.69-8.18,8.9c-1.15,1.26-2.76,1.94-4.42,1.94Z"/><polygon points="131.23 7.93 142.19 18.53 157.13 15.51 150.44 29.21 157.93 42.49 142.83 40.35 132.52 51.58 129.88 36.56 116.02 30.22 129.48 23.07 131.23 7.93" fill="#fff"/></g><g><path d="M574.78,56.58c-1.65,0-3.27-.68-4.42-1.94l-8.18-8.9-11.97,1.69c-.28,.04-.56,.06-.84,.06-1.96,0-3.83-.97-4.96-2.62-1.29-1.89-1.39-4.34-.27-6.33l5.94-10.53-5.31-10.86c-1-2.05-.75-4.5,.64-6.3,1.15-1.49,2.91-2.33,4.75-2.33,.39,0,.79,.04,1.19,.12l11.85,2.39,8.69-8.41c1.14-1.1,2.64-1.69,4.17-1.69,.68,0,1.36,.11,2.02,.35,2.15,.77,3.68,2.69,3.94,4.96l1.39,12.01,10.68,5.67c2.02,1.07,3.25,3.19,3.18,5.48-.07,2.28-1.42,4.33-3.5,5.28l-11,5.03-2.09,11.91c-.4,2.25-2.03,4.08-4.22,4.72-.56,.16-1.12,.24-1.68,.24Z"/><polygon points="576.07 6.93 565.11 17.53 550.17 14.51 556.86 28.21 549.37 41.49 564.47 39.35 574.78 50.58 577.42 35.56 591.28 29.22 577.81 22.07 576.07 6.93" fill="#fff"/></g></g><g><g><path d="M499.65,357.17c-7.06,0-14.1-2.3-19.83-6.47-5.88-4.28-11.37-9.02-16.32-14.09-7.98-8.17-15.06-17.59-21.91-26.7-6.14-8.17-11.91-15.85-16.46-20.01-1.1-1.01-2.65-2.27-4.8-3.14-.92-.37-1.89-.65-2.89-.82h-127.95c-.99,.17-1.96,.45-2.88,.82-2.17,.87-3.71,2.14-4.81,3.15-4.54,4.15-10.31,11.82-16.42,19.94-6.87,9.14-13.96,18.57-21.96,26.76-4.95,5.07-10.44,9.81-16.32,14.09-5.73,4.17-12.77,6.47-19.83,6.47-3.5,0-6.96-.55-10.28-1.63-6.94-2.25-13.25-5.62-18.75-9.99-17.77-14.12-22.41-34.39-24.48-50.48-4.37-34.04,11.47-99.37,42.35-174.74,2.81-7.15,7.06-13.56,12.58-18.95,4.44-4.33,8.73-6.99,12.71-9.22,9.33-5.22,18.14-10.14,31.85-13.96,7.48-2.08,15.2-4.23,25.1-4.23,1.63,0,3.32,.06,5.02,.18,5.53,.4,11.03,1.43,16.37,3.07h107.44c5.34-1.64,10.84-2.67,16.37-3.07,1.7-.12,3.39-.18,5.03-.18,9.9,0,17.61,2.14,25.08,4.22,13.73,3.82,22.54,8.75,31.87,13.96,3.98,2.22,8.27,4.88,12.71,9.22,5.52,5.39,9.77,11.8,12.62,19.04,30.85,75.29,46.68,140.61,42.32,174.66-2.06,16.09-6.71,36.36-24.48,50.48-5.51,4.38-11.82,7.74-18.76,9.99-3.32,1.08-6.78,1.63-10.28,1.63Z" fill="#fff"/><path d="M428.57,80.63c9,0,15.94,1.93,23.3,3.98,12.95,3.6,21.42,8.34,30.39,13.36,3.33,1.86,7.23,4.18,11.31,8.17,4.85,4.73,8.57,10.36,11.07,16.72,30.47,74.36,46.13,138.42,41.91,171.37-1.9,14.84-6.13,33.49-22.02,46.11-4.88,3.88-10.49,6.86-16.67,8.87-2.65,.86-5.42,1.3-8.22,1.3-5.66,0-11.31-1.85-15.91-5.19-5.57-4.06-10.78-8.55-15.47-13.36-7.69-7.87-14.65-17.13-21.38-26.08-6.31-8.39-12.27-16.32-17.27-20.89-1.4-1.28-3.63-3.12-6.8-4.4-1.55-.63-3.18-1.06-4.85-1.3h-128.99c-1.67,.24-3.3,.68-4.85,1.3-3.18,1.28-5.41,3.13-6.81,4.41-5,4.57-10.96,12.49-17.27,20.88-6.73,8.95-13.69,18.21-21.38,26.08-4.69,4.8-9.9,9.3-15.47,13.36-4.6,3.35-10.25,5.19-15.91,5.19-2.8,0-5.57-.44-8.22-1.3-6.18-2.01-11.79-4.99-16.67-8.87-15.89-12.63-20.11-31.28-22.02-46.11-4.23-32.95,11.44-97.02,41.91-171.37,2.5-6.36,6.23-11.98,11.07-16.71,4.08-3.99,7.98-6.31,11.31-8.17,8.97-5.02,17.44-9.75,30.38-13.35,7.37-2.05,14.32-3.98,23.31-3.98,1.49,0,3.02,.06,4.55,.16,5.36,.39,10.67,1.42,15.82,3.09h109.48c5.16-1.67,10.47-2.7,15.82-3.09,1.53-.11,3.06-.16,4.55-.16h0Zm0-13.32c-1.79,0-3.64,.07-5.5,.2-5.7,.41-11.36,1.43-16.87,3.05h-105.48c-5.51-1.62-11.18-2.64-16.87-3.05-1.87-.13-3.71-.2-5.51-.2-10.81,0-18.97,2.27-26.87,4.47-14.49,4.03-24.06,9.38-33.32,14.56-4.39,2.45-9.12,5.39-14.12,10.27-6.18,6.04-10.93,13.19-14.12,21.28-31.75,77.5-47.33,142.39-42.76,178.04,2.05,15.98,7.07,39.06,26.94,54.85,6.13,4.87,13.14,8.61,20.84,11.11,3.99,1.3,8.14,1.95,12.34,1.95,8.46,0,16.89-2.75,23.75-7.75,6.17-4.5,11.95-9.48,17.16-14.82,8.3-8.49,15.52-18.1,22.5-27.39,5.66-7.53,11.52-15.32,15.6-19.05,.73-.67,1.64-1.41,2.81-1.89,.34-.14,.7-.25,1.06-.34h126.62c.37,.09,.72,.2,1.06,.34,1.17,.47,2.08,1.22,2.81,1.89,4.09,3.74,9.95,11.52,15.61,19.06,6.99,9.29,14.21,18.9,22.5,27.38,5.22,5.34,10.99,10.32,17.16,14.82,6.86,5,15.3,7.74,23.75,7.74,4.2,0,8.35-.66,12.33-1.95,7.7-2.5,14.71-6.24,20.84-11.11,19.87-15.79,24.89-38.86,26.94-54.85,4.57-35.65-11.02-100.54-42.76-178.04-3.2-8.08-7.95-15.24-14.12-21.28-5-4.88-9.74-7.82-14.12-10.27-9.26-5.18-18.83-10.53-33.32-14.56-7.91-2.2-16.07-4.47-26.87-4.47h0Z"/></g><g><path d="M492.29,127.81c-1.15-2.94-3.46-7.69-8.02-12.15-2.81-2.75-5.47-4.38-8.5-6.07-8.71-4.87-16.05-8.97-27.45-12.15-7.88-2.19-14.4-4-23.33-3.36-6.18,.44-11.19,1.89-14.56,3.12h-113.91c-3.38-1.23-8.38-2.68-14.56-3.12-8.94-.64-15.45,1.17-23.34,3.36-11.4,3.17-18.74,7.28-27.45,12.15-3.03,1.7-5.69,3.33-8.5,6.07-4.56,4.45-6.87,9.21-8.02,12.15-30.75,75.03-44.76,135.83-41.06,164.72,1.83,14.23,5.6,28.25,17.09,37.38,4.18,3.33,8.59,5.36,12.5,6.63,4.13,1.34,8.67,.56,12.18-2,6.18-4.5,10.7-8.74,13.78-11.89,14.49-14.83,27.6-36.91,39.2-47.5,2.26-2.06,5.78-4.9,10.81-6.92,3.69-1.49,6.93-2.03,8.99-2.27h130.67c2.06,.23,5.3,.78,8.99,2.27,5.03,2.03,8.55,4.86,10.81,6.92,11.6,10.59,24.71,32.66,39.2,47.5,3.08,3.16,7.61,7.4,13.78,11.89,3.51,2.56,8.05,3.34,12.18,2,3.91-1.27,8.32-3.31,12.5-6.63,11.49-9.13,15.26-23.15,17.09-37.38,3.71-28.89-10.31-89.69-41.06-164.72Z"/><path d="M280.47,153.24c0,11.67-9.46,21.14-21.14,21.14s-21.14-9.46-21.14-21.14,9.46-21.14,21.14-21.14,21.14,9.46,21.14,21.14Z" fill="#fff"/><path d="M275.13,153.24c0,8.72-7.07,15.79-15.79,15.79s-15.79-7.07-15.79-15.79,7.07-15.79,15.79-15.79,15.79,7.07,15.79,15.79Z"/><path d="M259.33,180.29c-14.91,0-27.05-12.13-27.05-27.05s12.13-27.05,27.05-27.05,27.05,12.13,27.05,27.05-12.13,27.05-27.05,27.05Zm0-52.15c-13.84,0-25.1,11.26-25.1,25.11s11.26,25.1,25.1,25.1,25.11-11.26,25.11-25.1-11.26-25.11-25.11-25.11Z" fill="#fff"/><path d="M423.97,208.12c0,11.67-9.46,21.14-21.14,21.14s-21.14-9.46-21.14-21.14,9.46-21.14,21.14-21.14,21.14,9.46,21.14,21.14Z" fill="#fff"/><path d="M418.63,208.12c0,8.72-7.07,15.79-15.79,15.79s-15.79-7.07-15.79-15.79,7.07-15.79,15.79-15.79,15.79,7.07,15.79,15.79Z"/><path d="M402.84,235.17c-14.92,0-27.05-12.13-27.05-27.05s12.13-27.05,27.05-27.05,27.05,12.13,27.05,27.05-12.13,27.05-27.05,27.05Zm0-52.15c-13.84,0-25.1,11.26-25.1,25.1s11.26,25.11,25.1,25.11,25.1-11.26,25.1-25.11-11.26-25.1-25.1-25.1Z" fill="#fff"/><path d="M423.24,144.98c4.55,0,8.26,3.71,8.26,8.26s-3.71,8.26-8.26,8.26-8.26-3.71-8.26-8.26,3.7-8.26,8.26-8.26h0Zm0-3.89c-6.71,0-12.15,5.44-12.15,12.15s5.44,12.15,12.15,12.15,12.15-5.44,12.15-12.15-5.44-12.15-12.15-12.15h0Z" fill="#fff"/><path d="M380.97,162.56c-5.13,0-9.31-4.18-9.31-9.31s4.18-9.31,9.31-9.31,9.31,4.18,9.31,9.31-4.18,9.31-9.31,9.31Zm0-16.68c-4.06,0-7.37,3.31-7.37,7.37s3.31,7.37,7.37,7.37,7.37-3.3,7.37-7.37-3.31-7.37-7.37-7.37Z" fill="#fff"/><path d="M326.55,162.56c-5.13,0-9.31-4.18-9.31-9.31s4.18-9.31,9.31-9.31,9.31,4.18,9.31,9.31-4.18,9.31-9.31,9.31Zm0-16.68c-4.06,0-7.37,3.31-7.37,7.37s3.31,7.37,7.37,7.37,7.37-3.3,7.37-7.37-3.3-7.37-7.37-7.37Z" fill="#fff"/><path d="M474.14,144.98c4.55,0,8.26,3.71,8.26,8.26s-3.71,8.26-8.26,8.26-8.26-3.71-8.26-8.26,3.71-8.26,8.26-8.26h0Zm0-3.89c-6.71,0-12.15,5.44-12.15,12.15s5.44,12.15,12.15,12.15,12.15-5.44,12.15-12.15-5.44-12.15-12.15-12.15h0Z" fill="#fff"/><path d="M449.85,120.34c4.55,0,8.26,3.71,8.26,8.26s-3.7,8.26-8.26,8.26-8.26-3.71-8.26-8.26,3.71-8.26,8.26-8.26h0Zm0-3.89c-6.71,0-12.15,5.44-12.15,12.15s5.44,12.15,12.15,12.15,12.15-5.44,12.15-12.15-5.44-12.15-12.15-12.15h0Z" fill="#fff"/><path d="M449.85,169.28c4.55,0,8.26,3.71,8.26,8.26s-3.7,8.26-8.26,8.26-8.26-3.71-8.26-8.26,3.71-8.26,8.26-8.26h0Zm0-3.89c-6.71,0-12.15,5.44-12.15,12.15s5.44,12.15,12.15,12.15,12.15-5.44,12.15-12.15-5.44-12.15-12.15-12.15h0Z" fill="#fff"/><path d="M309.3,242.69h-8.1c-3.57,0-6.48-2.91-6.48-6.48v-12.9h-12.9c-3.57,0-6.48-2.91-6.48-6.48v-8.1c0-3.57,2.91-6.48,6.48-6.48h12.9v-12.9c0-3.57,2.91-6.48,6.48-6.48h8.1c3.57,0,6.48,2.91,6.48,6.48v12.9h12.9c3.57,0,6.48,2.91,6.48,6.48v8.1c0,3.57-2.91,6.48-6.48,6.48h-12.9v12.9c0,3.57-2.91,6.48-6.48,6.48Zm-27.48-38.49c-2.5,0-4.53,2.04-4.53,4.53v8.1c0,2.5,2.03,4.53,4.53,4.53h14.84v14.84c0,2.5,2.03,4.53,4.54,4.53h8.1c2.5,0,4.54-2.04,4.54-4.53v-14.84h14.84c2.5,0,4.54-2.04,4.54-4.53v-8.1c0-2.5-2.03-4.53-4.54-4.53h-14.84v-14.84c0-2.5-2.03-4.53-4.54-4.53h-8.1c-2.5,0-4.54,2.04-4.54,4.53v14.84h-14.84Z" fill="#fff"/><path d="M393.39,121.91c-.99,.7-3.03,1.96-6.32,2.76-2.45,.58-4.61,.7-6.01,.7h-55.08c-1.4,0-3.56-.12-6.01-.7-3.29-.8-5.33-2.06-6.32-2.76-7.21-4.47-14.44-8.94-21.67-13.43,7.23,7.37,14.46,14.73,21.67,22.1,.99,1.15,3.03,3.23,6.32,4.53,2.45,.97,4.61,1.15,6.01,1.13h55.08c1.4,.02,3.56-.16,6.01-1.13,3.28-1.3,5.33-3.38,6.32-4.53,7.23-7.37,14.46-14.73,21.67-22.1-7.23,4.49-14.44,8.96-21.67,13.43Z" fill="#fff"/><g><path d="M367.2,116.96c0,7.38-5.98,13.36-13.36,13.36s-13.36-5.98-13.36-13.36,5.98-13.36,13.36-13.36,13.36,5.98,13.36,13.36Z" fill="#fff"/><path d="M353.84,132.27c-8.44,0-15.31-6.87-15.31-15.31s6.87-15.31,15.31-15.31,15.31,6.87,15.31,15.31-6.87,15.31-15.31,15.31Zm0-26.72c-6.3,0-11.42,5.12-11.42,11.42s5.12,11.42,11.42,11.42,11.42-5.12,11.42-11.42-5.12-11.42-11.42-11.42Z"/></g></g></g></g></g></svg>