<?xml version="1.0" standalone="no"?>
<!DOCTYPE svg PUBLIC "-//W3C//DTD SVG 20010904//EN"
 "http://www.w3.org/TR/2001/REC-SVG-20010904/DTD/svg10.dtd">
<svg version="1.0" xmlns="http://www.w3.org/2000/svg"
 width="354.000000pt" height="354.000000pt" viewBox="0 0 354.000000 354.000000"
 preserveAspectRatio="xMidYMid meet">
<metadata>
Created by potrace 1.14, written by Peter Selinger 2001-2017
</metadata>
<g transform="translate(0.000000,354.000000) scale(0.100000,-0.100000)"
fill="#000000" stroke="none">
<path d="M2841 2654 c-24 -20 -38 -24 -57 -20 -33 9 -64 -1 -64 -20 0 -8 7
-28 15 -45 14 -27 14 -32 0 -51 -33 -49 -9 -87 47 -73 17 4 30 -1 48 -19 41
-44 80 -31 80 27 0 15 12 28 37 42 50 27 53 50 10 75 -26 16 -37 30 -42 58 -6
34 -19 51 -37 52 -3 0 -20 -12 -37 -26z m49 -61 c0 -15 11 -28 32 -39 30 -16
31 -18 14 -28 -36 -21 -56 -46 -56 -71 0 -32 -13 -32 -35 1 -15 23 -21 26 -56
20 -44 -7 -45 -6 -24 34 14 27 14 33 0 60 -8 16 -15 31 -15 33 0 3 19 2 43 0
34 -4 46 -1 61 16 22 24 36 14 36 -26z"/>
<path d="M632 2658 c-7 -7 -12 -25 -12 -40 0 -22 -8 -33 -35 -49 -46 -27 -46
-54 0 -76 26 -13 36 -25 41 -49 11 -58 45 -66 84 -20 8 10 29 16 57 16 53 0
64 18 39 65 -16 30 -17 35 -2 63 24 46 12 65 -38 60 -32 -4 -47 0 -69 19 -32
26 -47 29 -65 11z m118 -61 c30 6 33 4 26 -13 -17 -40 -17 -53 -2 -83 l17 -31
-41 0 c-32 0 -46 -6 -65 -27 l-24 -28 -7 42 c-5 36 -11 44 -41 56 l-36 14 37
22 c30 19 36 28 36 57 l0 35 34 -26 c26 -20 40 -24 66 -18z"/>
<path d="M864 2656 c-3 -8 -4 -29 -2 -48 2 -28 7 -34 31 -36 27 -3 27 -4 27
-83 l0 -79 49 0 c58 0 61 5 61 96 0 36 4 64 10 64 6 0 10 -31 10 -74 0 -41 4
-77 9 -80 5 -3 80 -6 167 -7 134 0 160 2 170 16 10 14 12 14 18 0 4 -12 25
-15 111 -15 59 0 115 5 126 10 13 7 19 7 19 0 0 -18 91 -12 106 8 13 16 15 16
28 0 9 -13 27 -18 60 -18 44 0 46 1 46 28 0 15 -17 72 -38 127 l-38 100 -42 3
c-42 3 -43 2 -60 -37 -20 -47 -25 -50 -39 -18 -18 40 -70 57 -171 57 -69 0
-93 -4 -103 -16 -11 -14 -13 -14 -21 0 -8 14 -44 16 -269 16 -214 0 -261 -2
-265 -14z m196 -26 c0 -16 -7 -20 -30 -20 l-30 0 0 -85 c0 -84 0 -85 -25 -85
-25 0 -25 1 -25 85 l0 85 -30 0 c-23 0 -30 4 -30 20 0 18 7 20 85 20 78 0 85
-2 85 -20z m70 -85 l0 -105 -25 0 -25 0 0 105 0 105 25 0 25 0 0 -105z m180
85 c0 -17 -7 -20 -45 -20 -38 0 -45 -3 -45 -20 0 -16 7 -20 35 -20 28 0 35 -4
35 -20 0 -16 -7 -20 -35 -20 -31 0 -35 -3 -35 -25 0 -23 4 -25 45 -25 38 0 45
-3 45 -20 0 -18 -7 -20 -75 -20 l-75 0 0 105 0 105 75 0 c68 0 75 -2 75 -20z
m101 -42 l34 -63 3 63 c3 58 4 62 27 62 25 0 25 0 25 -105 l0 -105 -27 0 c-24
0 -33 9 -58 58 l-30 57 -3 -57 c-3 -57 -4 -58 -32 -58 l-30 0 0 105 0 105 29
0 c24 0 33 -8 62 -62z m230 52 c24 -13 49 -61 49 -95 0 -34 -25 -82 -49 -95
-11 -5 -42 -10 -70 -10 l-51 0 0 105 0 105 51 0 c28 0 59 -5 70 -10z m173 2
c3 -5 21 -52 40 -105 l35 -97 -28 0 c-20 0 -30 6 -34 20 -4 15 -14 20 -41 20
-29 0 -36 -4 -36 -20 0 -16 -7 -20 -31 -20 -21 0 -30 4 -26 13 2 6 19 54 38
105 28 79 36 92 56 92 12 0 24 -4 27 -8z"/>
<path d="M1580 2545 c0 -50 3 -65 14 -65 19 0 46 38 46 65 0 27 -27 65 -46 65
-11 0 -14 -15 -14 -65z"/>
<path d="M1780 2568 c0 -9 -3 -23 -6 -32 -4 -12 0 -16 16 -16 18 0 20 4 15 23
-10 30 -25 46 -25 25z"/>
<path d="M1978 2641 c-27 -24 -32 -36 -36 -88 -3 -43 0 -69 13 -92 21 -41 75
-66 125 -56 19 4 42 7 50 7 93 0 439 -1 488 -2 57 -1 62 1 62 20 0 12 -12 43
-27 70 l-26 47 33 46 c27 39 31 49 20 62 -14 17 -72 20 -100 5 -13 -7 -21 -7
-25 0 -9 14 -398 13 -412 -1 -8 -8 -17 -8 -31 0 -40 21 -99 13 -134 -18z m137
-16 c14 -13 25 -29 25 -35 0 -16 -47 -12 -54 5 -7 18 -37 20 -54 3 -17 -17
-15 -93 3 -108 17 -14 47 -10 53 8 2 7 -5 12 -17 12 -14 0 -21 6 -21 20 0 17
7 20 45 20 l45 0 0 -43 c0 -37 -4 -46 -25 -55 -44 -20 -93 -15 -120 13 -21 20
-25 34 -25 80 0 46 4 60 25 80 33 34 87 34 120 0z m195 5 c0 -17 -7 -20 -45
-20 -38 0 -45 -3 -45 -20 0 -16 7 -20 35 -20 28 0 35 -4 35 -20 0 -16 -7 -20
-35 -20 -31 0 -35 -3 -35 -25 0 -23 4 -25 45 -25 38 0 45 -3 45 -20 0 -18 -7
-20 -75 -20 l-75 0 0 105 0 105 75 0 c68 0 75 -2 75 -20z m160 0 c0 -17 -7
-20 -45 -20 -38 0 -45 -3 -45 -20 0 -16 7 -20 35 -20 28 0 35 -4 35 -20 0 -16
-7 -20 -35 -20 -31 0 -35 -3 -35 -25 0 -23 4 -25 45 -25 38 0 45 -3 45 -20 0
-18 -7 -20 -75 -20 l-75 0 0 105 0 105 75 0 c68 0 75 -2 75 -20z m70 -22 l0
-43 28 42 c23 36 32 43 60 43 l33 0 -35 -46 c-39 -51 -39 -47 11 -126 l23 -38
-30 0 c-24 0 -35 7 -51 35 -12 19 -25 35 -30 35 -5 0 -9 -16 -9 -35 0 -32 -2
-35 -30 -35 l-30 0 0 105 0 105 30 0 c29 0 30 -2 30 -42z"/>
<path d="M1345 2343 c-155 -22 -332 -124 -384 -222 -8 -15 -21 -21 -46 -21
-18 0 -89 -11 -157 -24 -304 -61 -471 -41 -635 76 -33 24 -47 29 -72 23 -43
-9 -54 -36 -49 -115 6 -81 39 -157 97 -222 47 -53 150 -137 198 -162 30 -15
31 -17 19 -42 -20 -37 -10 -58 56 -119 50 -47 185 -125 214 -125 6 0 14 -15
19 -32 8 -25 24 -41 65 -66 l55 -32 12 -77 c19 -109 56 -184 119 -242 78 -72
159 -95 247 -70 50 14 159 117 254 241 l75 98 334 0 334 0 93 -118 c103 -129
161 -184 222 -213 102 -48 244 6 316 120 36 55 69 158 69 212 0 35 4 41 43 65
62 39 87 65 87 91 0 13 6 23 14 23 33 0 179 85 230 133 58 55 71 92 41 117
-12 10 -2 20 59 61 40 26 104 82 143 122 77 81 106 140 117 237 8 65 -7 100
-46 114 -23 8 -36 3 -90 -32 -142 -92 -233 -112 -430 -94 -73 7 -171 21 -218
32 -47 11 -103 20 -125 20 -36 1 -43 5 -70 48 -52 82 -183 155 -335 188 -51
11 -81 12 -141 3 -73 -10 -622 -7 -679 4 -14 2 -38 3 -55 0z m955 -102 c86
-32 162 -82 192 -126 34 -48 117 -266 164 -428 51 -179 74 -304 74 -410 0
-167 -48 -271 -151 -322 -64 -33 -105 -32 -160 4 -54 35 -88 70 -181 190 -115
148 -74 136 -459 139 -287 2 -334 1 -364 -13 -20 -10 -59 -49 -96 -98 -138
-179 -214 -247 -278 -247 -87 1 -187 86 -219 189 -25 81 -22 238 7 376 25 121
132 455 179 556 44 97 108 149 237 193 58 20 79 21 530 20 452 -2 472 -2 525
-23z m-2184 -162 c57 -39 134 -73 203 -89 73 -17 316 -7 441 18 154 32 160 33
159 19 0 -6 -8 -31 -18 -55 l-17 -44 -135 -44 c-151 -49 -233 -56 -328 -28
-29 8 -55 13 -58 11 -2 -3 25 -19 61 -37 115 -57 196 -51 392 28 l51 21 -24
-73 -24 -73 -70 -28 c-124 -48 -232 -50 -352 -5 -114 43 -251 160 -296 253
-28 59 -51 157 -36 157 3 0 26 -14 51 -31z m3351 -23 c-8 -79 -46 -143 -130
-222 -185 -173 -390 -213 -587 -113 -30 14 -39 27 -54 76 -10 32 -21 63 -23
70 -3 6 42 -7 98 -29 124 -49 193 -57 275 -33 55 16 129 53 122 61 -2 2 -28
-3 -58 -11 -98 -26 -175 -20 -317 26 -71 23 -133 47 -139 53 -13 13 -47 97
-41 103 2 2 62 -8 133 -23 109 -23 156 -27 304 -28 197 -1 223 5 351 84 35 21
66 39 68 40 2 0 1 -24 -2 -54z m-2681 -428 c-3 -13 -6 -28 -6 -34 0 -6 -14
-17 -30 -24 -43 -18 -50 -34 -12 -28 30 4 31 3 25 -21 -20 -82 -14 -76 -85
-76 -56 0 -76 6 -149 42 -46 23 -100 58 -119 78 l-35 37 85 -7 c91 -7 216 10
280 38 48 21 53 20 46 -5z m2017 2 c81 -29 189 -42 282 -35 l80 6 -45 -41
c-68 -62 -179 -112 -260 -118 -75 -5 -72 -7 -85 69 -7 36 -6 36 22 32 25 -3
26 -2 9 9 -40 28 -54 44 -60 71 -4 15 -5 27 -3 27 1 0 28 -9 60 -20z m-2067
-266 c-3 -9 -6 -20 -6 -25 0 -6 -14 -2 -30 8 -26 15 -28 19 -13 25 33 13 56 9
49 -8z m2109 7 c18 -7 17 -9 -13 -25 l-32 -17 0 26 c0 26 10 29 45 16z"/>
<path d="M1262 2183 c-34 -12 -85 -36 -112 -53 -63 -40 -87 -88 -174 -351 -78
-236 -108 -372 -110 -499 -1 -103 11 -153 51 -212 24 -35 92 -78 124 -78 31 0
104 69 196 185 52 66 110 131 130 145 l36 25 341 3 c220 2 354 -1 377 -7 53
-16 79 -40 167 -154 88 -114 158 -183 195 -192 33 -9 99 26 131 67 70 94 73
253 8 508 -40 154 -122 394 -165 480 -25 52 -86 97 -175 130 -55 21 -71 22
-507 24 -437 1 -452 0 -513 -21z m539 -43 c13 -8 19 -21 19 -46 0 -43 -34 -64
-75 -46 -47 21 -29 102 23 102 7 0 22 -5 33 -10z m-157 -80 c40 0 57 -5 71
-20 11 -12 31 -20 50 -20 18 0 44 9 58 20 17 14 40 20 73 20 38 0 61 8 107 36
32 20 60 34 63 32 2 -3 -25 -32 -60 -66 l-64 -62 -174 0 -174 0 -69 71 -70 71
68 -41 c56 -34 76 -41 121 -41z m644 24 c22 -15 30 -57 14 -80 -15 -23 -50
-34 -75 -25 -60 23 -42 121 23 121 9 0 26 -7 38 -16z m-921 -54 c72 -43 85
-153 25 -213 -41 -41 -120 -49 -170 -17 -58 36 -78 116 -44 179 35 66 125 90
189 51z m788 -75 c30 -29 32 -58 5 -85 -11 -11 -29 -20 -40 -20 -25 0 -70 42
-70 65 0 9 11 27 25 40 13 14 31 25 40 25 9 0 27 -11 40 -25z m263 2 c8 -6 12
-25 10 -46 -2 -27 -10 -39 -30 -51 -25 -13 -31 -13 -55 0 -30 17 -38 38 -29
76 10 40 66 52 104 21z m-750 -9 c19 -19 14 -55 -9 -72 -26 -18 -59 -8 -70 21
-16 44 46 84 79 51z m272 -2 c16 -21 9 -56 -15 -72 -41 -27 -88 39 -53 74 16
16 53 15 68 -2z m344 -107 c48 -38 23 -109 -38 -109 -28 0 -56 29 -56 59 0 31
8 44 35 59 27 15 28 15 59 -9z m-197 -84 c73 -48 84 -153 20 -211 -48 -45 -94
-52 -150 -25 -58 28 -82 71 -75 135 12 101 122 155 205 101z m-519 3 c7 -7 12
-29 12 -50 0 -37 1 -38 38 -38 46 0 62 -14 62 -55 0 -41 -16 -55 -62 -55 -38
0 -38 0 -38 -40 0 -34 -4 -42 -25 -52 -18 -8 -35 -9 -53 -2 -23 8 -27 16 -30
52 -3 42 -3 42 -43 42 -33 0 -41 4 -51 25 -8 18 -9 35 -2 53 8 23 16 27 52 30
41 3 42 4 42 41 0 45 14 61 55 61 17 0 36 -5 43 -12z"/>
<path d="M2226 2067 c-36 -26 4 -84 42 -61 23 15 26 38 7 58 -20 19 -26 20
-49 3z"/>
<path d="M1243 2024 c-114 -57 -74 -234 53 -234 37 0 94 36 111 70 30 59 0
140 -62 166 -43 18 -62 17 -102 -2z m107 -19 c37 -19 50 -43 50 -95 0 -108
-149 -140 -199 -43 -21 42 -13 83 23 119 38 38 77 44 126 19z"/>
<path d="M1262 1985 c-46 -20 -58 -83 -23 -126 45 -56 151 -6 137 64 -12 60
-58 85 -114 62z"/>
<path d="M2084 1936 c-12 -31 0 -51 31 -51 27 0 30 3 30 30 0 25 -4 30 -28 33
-17 2 -29 -2 -33 -12z"/>
<path d="M2340 1935 c-20 -24 -3 -55 30 -55 20 0 31 6 35 20 8 25 -10 50 -35
50 -10 0 -23 -7 -30 -15z"/>
<path d="M1610 1935 c-18 -22 -8 -50 19 -50 32 0 49 28 32 49 -17 20 -35 20
-51 1z"/>
<path d="M1880 1936 c-27 -33 18 -72 48 -42 13 13 14 20 6 34 -15 23 -38 26
-54 8z"/>
<path d="M2222 1818 c-18 -18 -14 -46 7 -58 25 -13 48 -4 56 21 12 38 -35 65
-63 37z"/>
<path d="M1948 1742 c-30 -18 -58 -67 -58 -102 0 -36 31 -90 61 -105 15 -8 47
-15 70 -15 70 0 132 79 114 147 -3 14 -21 41 -40 60 -27 27 -40 33 -76 33 -24
0 -56 -8 -71 -18z m106 -6 c71 -30 89 -110 37 -168 -25 -28 -36 -33 -76 -33
-40 0 -51 5 -76 33 -36 40 -39 96 -8 136 36 45 70 54 123 32z"/>
<path d="M1959 1691 c-31 -32 -35 -50 -17 -84 28 -53 89 -63 128 -22 33 35 31
81 -4 112 -37 31 -71 29 -107 -6z"/>
<path d="M1490 1706 l0 -45 -47 -3 c-47 -3 -48 -3 -51 -40 l-3 -37 48 -3 48
-3 3 -48 3 -48 37 3 c37 3 37 4 40 51 l3 47 45 0 45 0 -3 38 c-3 36 -4 37 -45
40 -42 3 -42 3 -45 45 -3 41 -4 42 -40 45 l-38 3 0 -45z"/>
</g>
</svg>
